<svg xmlns="http://www.w3.org/2000/svg" viewBox="0 0 247.68 222.91"><title>display_DB</title><g id="レイヤー_2" data-name="レイヤー 2"><g id="レイヤー_1-2" data-name="レイヤー 1"><g id="レイヤー_3" data-name="レイヤー 3"><rect x="0.5" y="0.5" width="246.68" height="166.33" rx="5.39" ry="5.39" style="fill:#595757;stroke:#595757;stroke-miterlimit:10"/><rect x="12.13" y="8.34" width="223.42" height="150.64" style="fill:#fff"/><polygon points="169.05 187.35 78.63 187.35 83.11 167.12 164.57 167.12 169.05 187.35" style="fill:#595757"/><path d="M176.7,222.91H71a4,4,0,0,1-3.72-5.41l11.18-29.27h90.8l11.18,29.27A4,4,0,0,1,176.7,222.91Z" style="fill:#595757"/></g><rect x="18.41" y="14.81" width="96.93" height="5.27" style="fill:#666;stroke:#666;stroke-miterlimit:10"/><rect x="18.41" y="22.96" width="35.32" height="80.81" style="fill:none;stroke:#666;stroke-miterlimit:10;stroke-width:0.75px"/><circle cx="77.07" cy="42.19" r="19.23" style="fill:none;stroke:#666;stroke-miterlimit:10;stroke-width:0.75px"/><circle cx="77.07" cy="86.41" r="19.23" style="fill:none;stroke:#666;stroke-miterlimit:10;stroke-width:0.75px"/><circle cx="124.12" cy="86.41" r="19.23" style="fill:none;stroke:#666;stroke-miterlimit:10;stroke-width:0.75px"/><circle cx="171.18" cy="86.41" r="19.23" style="fill:none;stroke:#666;stroke-miterlimit:10;stroke-width:0.75px"/><circle cx="171.18" cy="42.19" r="19.23" style="fill:none;stroke:#666;stroke-miterlimit:10;stroke-width:0.75px"/><rect x="106.52" y="24.59" width="35.21" height="35.21" style="fill:none;stroke:#666;stroke-miterlimit:10;stroke-width:0.75px"/><rect x="193.91" y="22.96" width="35.32" height="80.81" style="fill:none;stroke:#666;stroke-miterlimit:10;stroke-width:0.75px"/><circle cx="22.11" cy="28.65" r="2.2" style="fill:#595757"/><line x1="27.18" y1="28.65" x2="51.66" y2="28.65" style="fill:none;stroke:#595757;stroke-miterlimit:10;stroke-width:2px"/><circle cx="22.11" cy="37.44" r="2.2" style="fill:#595757"/><line x1="27.18" y1="37.44" x2="51.66" y2="37.44" style="fill:none;stroke:#595757;stroke-miterlimit:10;stroke-width:2px"/><circle cx="22.11" cy="46.23" r="2.2" style="fill:#595757"/><line x1="27.18" y1="46.23" x2="51.66" y2="46.23" style="fill:none;stroke:#595757;stroke-miterlimit:10;stroke-width:2px"/><circle cx="22.11" cy="55.02" r="2.2" style="fill:#595757"/><line x1="27.18" y1="55.02" x2="51.66" y2="55.02" style="fill:none;stroke:#595757;stroke-miterlimit:10;stroke-width:2px"/><circle cx="22.11" cy="63.81" r="2.2" style="fill:#595757"/><line x1="27.18" y1="63.81" x2="51.66" y2="63.81" style="fill:none;stroke:#595757;stroke-miterlimit:10;stroke-width:2px"/><circle cx="22.11" cy="72.59" r="2.2" style="fill:#595757"/><line x1="27.18" y1="72.59" x2="51.66" y2="72.59" style="fill:none;stroke:#595757;stroke-miterlimit:10;stroke-width:2px"/><circle cx="22.11" cy="81.38" r="2.2" style="fill:#595757"/><line x1="27.18" y1="81.38" x2="51.66" y2="81.38" style="fill:none;stroke:#595757;stroke-miterlimit:10;stroke-width:2px"/><circle cx="22.11" cy="90.17" r="2.2" style="fill:#595757"/><line x1="27.18" y1="90.17" x2="51.66" y2="90.17" style="fill:none;stroke:#595757;stroke-miterlimit:10;stroke-width:2px"/><circle cx="22.11" cy="98.96" r="2.2" style="fill:#595757"/><line x1="27.18" y1="98.96" x2="51.66" y2="98.96" style="fill:none;stroke:#595757;stroke-miterlimit:10;stroke-width:2px"/><circle cx="197.9" cy="29.15" r="2.2" style="fill:#595757"/><line x1="202.98" y1="29.15" x2="227.45" y2="29.15" style="fill:none;stroke:#595757;stroke-miterlimit:10;stroke-width:2px"/><circle cx="197.9" cy="38.31" r="2.2" style="fill:#595757"/><line x1="202.98" y1="38.31" x2="227.45" y2="38.31" style="fill:none;stroke:#595757;stroke-miterlimit:10;stroke-width:2px"/><circle cx="197.9" cy="47.47" r="2.2" style="fill:#595757"/><line x1="202.98" y1="47.47" x2="227.45" y2="47.47" style="fill:none;stroke:#595757;stroke-miterlimit:10;stroke-width:2px"/><circle cx="197.9" cy="56.63" r="2.2" style="fill:#595757"/><line x1="202.98" y1="56.63" x2="227.45" y2="56.63" style="fill:none;stroke:#595757;stroke-miterlimit:10;stroke-width:2px"/><circle cx="197.9" cy="65.79" r="2.2" style="fill:#595757"/><line x1="202.98" y1="65.79" x2="227.45" y2="65.79" style="fill:none;stroke:#595757;stroke-miterlimit:10;stroke-width:2px"/><circle cx="197.9" cy="79.95" r="2.2" style="fill:#595757"/><line x1="202.98" y1="79.95" x2="227.45" y2="79.95" style="fill:none;stroke:#595757;stroke-miterlimit:10;stroke-width:2px"/><circle cx="197.9" cy="89.11" r="2.2" style="fill:#595757"/><line x1="202.98" y1="89.11" x2="227.45" y2="89.11" style="fill:none;stroke:#595757;stroke-miterlimit:10;stroke-width:2px"/><circle cx="197.9" cy="98.26" r="2.2" style="fill:#595757"/><line x1="202.98" y1="98.26" x2="227.45" y2="98.26" style="fill:none;stroke:#595757;stroke-miterlimit:10;stroke-width:2px"/><rect x="120.27" y="13.96" width="7.14" height="210.27" transform="translate(4.75 242.93) rotate(-90)" style="fill:#595757;stroke:#595757;stroke-miterlimit:10;stroke-width:0.5px"/><rect x="120.27" y="21.1" width="7.14" height="210.27" transform="translate(-2.39 250.07) rotate(-90)" style="fill:#fff;stroke:#595757;stroke-miterlimit:10;stroke-width:0.5px"/><rect x="120.27" y="28.89" width="7.14" height="210.27" transform="translate(-10.18 257.86) rotate(-90)" style="fill:#595757;stroke:#595757;stroke-miterlimit:10;stroke-width:0.5px"/><rect x="120.27" y="36.03" width="7.14" height="210.27" transform="translate(-17.32 265) rotate(-90)" style="fill:#fff;stroke:#595757;stroke-miterlimit:10;stroke-width:0.5px"/><rect x="120.27" y="43.17" width="7.14" height="210.27" transform="translate(-24.46 272.14) rotate(-90)" style="fill:#595757;stroke:#595757;stroke-miterlimit:10;stroke-width:0.5px"/><rect x="120.27" y="50.31" width="7.14" height="210.27" transform="translate(-31.61 279.28) rotate(-90)" style="fill:#fff;stroke:#595757;stroke-miterlimit:10;stroke-width:0.5px"/><line x1="171.18" y1="67.17" x2="171.18" y2="86.41" style="fill:none;stroke:#666;stroke-linecap:round;stroke-miterlimit:10;stroke-width:0.75px"/><line x1="187.81" y1="96.07" x2="171.18" y2="86.41" style="fill:none;stroke:#666;stroke-linecap:round;stroke-miterlimit:10;stroke-width:0.75px"/><line x1="171.18" y1="22.96" x2="171.18" y2="42.19" style="fill:none;stroke:#666;stroke-miterlimit:10;stroke-width:0.75px"/><line x1="164.78" y1="60.34" x2="171.18" y2="42.19" style="fill:none;stroke:#666;stroke-miterlimit:10;stroke-width:0.75px"/><line x1="124.12" y1="67.17" x2="124.12" y2="86.41" style="fill:none;stroke:#666;stroke-linecap:round;stroke-miterlimit:10;stroke-width:0.75px"/><line x1="106.01" y1="79.95" x2="124.12" y2="86.41" style="fill:none;stroke:#666;stroke-linecap:round;stroke-miterlimit:10;stroke-width:0.75px"/><line x1="117.24" y1="68.45" x2="124.12" y2="86.41" style="fill:none;stroke:#666;stroke-linecap:round;stroke-miterlimit:10;stroke-width:0.75px"/><line x1="171.18" y1="42.19" x2="189.98" y2="46.23" style="fill:none;stroke:#666;stroke-miterlimit:10;stroke-width:0.75px"/><line x1="152.37" y1="46.23" x2="171.18" y2="42.19" style="fill:none;stroke:#666;stroke-miterlimit:10;stroke-width:0.75px"/><line x1="77.07" y1="86.41" x2="61.74" y2="74.79" style="fill:none;stroke:#666;stroke-linecap:round;stroke-miterlimit:10;stroke-width:0.75px"/><line x1="90.45" y1="72.59" x2="77.07" y2="86.41" style="fill:none;stroke:#666;stroke-linecap:round;stroke-miterlimit:10;stroke-width:0.75px"/><line x1="171.18" y1="42.19" x2="159.45" y2="26.95" style="fill:none;stroke:#666;stroke-miterlimit:10;stroke-width:0.75px"/><rect x="107.34" y="48.25" width="2.83" height="11.34" style="fill:#9fa0a0;stroke:#595757;stroke-linecap:round;stroke-miterlimit:10;stroke-width:0.75px"/><rect x="129.52" y="48.25" width="2.83" height="11.34" style="fill:#9fa0a0;stroke:#595757;stroke-linecap:round;stroke-miterlimit:10;stroke-width:0.75px"/><rect x="133.96" y="39.75" width="2.83" height="19.84" style="fill:#9fa0a0;stroke:#595757;stroke-linecap:round;stroke-miterlimit:10;stroke-width:0.75px"/><rect x="125.08" y="28.41" width="2.83" height="31.18" style="fill:#9fa0a0;stroke:#595757;stroke-linecap:round;stroke-miterlimit:10;stroke-width:0.75px"/><rect x="111.77" y="53.92" width="2.83" height="5.67" style="fill:#9fa0a0;stroke:#595757;stroke-linecap:round;stroke-miterlimit:10;stroke-width:0.75px"/><rect x="138.39" y="53.92" width="2.83" height="5.67" style="fill:#9fa0a0;stroke:#595757;stroke-linecap:round;stroke-miterlimit:10;stroke-width:0.75px"/><rect x="120.65" y="48.25" width="2.83" height="11.34" style="fill:#9fa0a0;stroke:#595757;stroke-linecap:round;stroke-miterlimit:10;stroke-width:0.75px"/><rect x="116.21" y="53.92" width="2.83" height="5.67" style="fill:#9fa0a0;stroke:#595757;stroke-linecap:round;stroke-miterlimit:10;stroke-width:0.75px"/></g></g></svg>